<svg xmlns="http://www.w3.org/2000/svg" width="310.872" height="116.456" viewBox="0 0 310.872 116.456">
    <defs>
        <style>
            .cls-1{fill:#1c6cc1}.cls-2{fill:#fff}.cls-3{fill:#69b3e7}.cls-4{fill:#0076ce}.cls-5{fill:#003c71}
        </style>
    </defs>
    <g id="teamcheck-logo-rev" transform="translate(-32 -80.245)">
        <g id="Group_24" data-name="Group 24" transform="translate(34 153.554)">
            <path id="Path_22" d="M102.775 564.131v-30.372h-8.831a3.971 3.971 0 1 1 0-7.943h26.75a3.971 3.971 0 1 1 0 7.943h-8.833v30.372a4.543 4.543 0 0 1-9.086 0z" class="cls-1" data-name="Path 22" transform="translate(-89.94 -525.816)"/>
            <path id="Path_23" d="M144.639 540.92c9.15 0 15.376 6.862 15.376 14.869 0 2.669-1.716 3.812-4.828 3.812H137.2c.509 3.877 3.621 7.117 8.832 7.117a13.137 13.137 0 0 0 6.232-1.718 3.021 3.021 0 0 1 1.525-.381 3.228 3.228 0 0 1 3.177 3.177 3.348 3.348 0 0 1-1.716 2.8 20.4 20.4 0 0 1-10.1 2.541c-9.341 0-16.393-6.29-16.393-16.139-.003-8.898 6.543-16.078 15.882-16.078zm-7.561 13.217H152.2a7.108 7.108 0 0 0-7.561-6.8c-5.02.001-7.18 3.75-7.561 6.8z" class="cls-1" data-name="Path 23" transform="translate(-100.669 -529.991)"/>
            <path id="Path_24" d="M201.39 552.548v16.076a4.08 4.08 0 0 1-8.133.572c-2.033 2.415-5.655 3.939-9.658 3.939-4.892 0-10.675-3.3-10.675-10.166 0-7.18 5.783-9.786 10.675-9.786 4.066 0 7.689 1.271 9.722 3.75v-4.258c0-3.113-2.669-5.147-6.736-5.147a12.3 12.3 0 0 0-6.8 2.033 3.3 3.3 0 0 1-1.588.445 3.106 3.106 0 0 1-3.05-3.114 3.186 3.186 0 0 1 1.462-2.669 20.431 20.431 0 0 1 11.373-3.3c6.991-.003 13.408 2.793 13.408 11.625zM193.321 565v-3.81c-1.334-1.779-3.876-2.669-6.481-2.669-3.177 0-5.782 1.716-5.782 4.638 0 2.86 2.6 4.512 5.782 4.512 2.605 0 5.146-.89 6.481-2.671z" class="cls-1" data-name="Path 24" transform="translate(-112.879 -529.991)"/>
            <path id="Path_25" d="M265.132 550.2v18.554a4.066 4.066 0 1 1-8.133 0v-15.761c0-2.86-1.271-4.892-4.575-4.892a8.148 8.148 0 0 0-6.354 3.558v17.092a4.066 4.066 0 1 1-8.133 0v-15.758c0-2.86-1.271-4.892-4.574-4.892a8.236 8.236 0 0 0-6.354 3.621v17.029a4.035 4.035 0 1 1-8.07 0V545.3a4.056 4.056 0 0 1 4-4.13 4.122 4.122 0 0 1 4.13 4.13v.318a13.487 13.487 0 0 1 9.976-4.7c4.511 0 7.37 2.1 8.514 5.592a13.023 13.023 0 0 1 10.547-5.592c5.658.002 9.026 2.989 9.026 9.282z" class="cls-1" data-name="Path 25" transform="translate(-125.599 -529.991)"/>
        </g>
        <g id="Group_25" data-name="Group 25" transform="translate(179.386 152.858)">
            <path id="Path_26" d="M290.869 546.775c0-13.026 9.849-21.921 22.239-21.921 6.99 0 11.755 2.606 15.123 6.291a4.094 4.094 0 0 1 1.08 2.859 4.258 4.258 0 0 1-4.257 4.258 4.2 4.2 0 0 1-3.24-1.462 11.6 11.6 0 0 0-8.705-3.939c-7.371 0-12.962 5.909-12.962 13.915s5.591 13.916 12.962 13.916a11.454 11.454 0 0 0 8.768-4 4.357 4.357 0 0 1 3.177-1.4 4.258 4.258 0 0 1 4.257 4.258 3.94 3.94 0 0 1-1.08 2.8c-3.367 3.685-8.133 6.354-15.123 6.354-12.39-.004-22.239-8.904-22.239-21.929z" class="cls-2" data-name="Path 26" transform="translate(-290.869 -524.854)"/>
            <path id="Path_27" d="M369.251 564.41v-15.059c0-4.257-2.224-5.591-5.718-5.591a8.938 8.938 0 0 0-6.989 3.621v17.029a4.041 4.041 0 0 1-4 4.066 4.1 4.1 0 0 1-4.066-4.066v-35.139a4.1 4.1 0 0 1 4.066-4.066 4.041 4.041 0 0 1 4 4.066v12.073a14.2 14.2 0 0 1 10.8-4.766c6.735 0 9.976 3.686 9.976 9.658v18.174a4.035 4.035 0 1 1-8.07 0z" class="cls-2" data-name="Path 27" transform="translate(-306.793 -524.951)"/>
            <path id="Path_28" d="M408.176 540.924c9.15 0 15.377 6.862 15.377 14.869 0 2.669-1.716 3.812-4.829 3.812h-17.982c.508 3.877 3.622 7.117 8.832 7.117a13.14 13.14 0 0 0 6.227-1.716 3.013 3.013 0 0 1 1.525-.381 3.227 3.227 0 0 1 3.174 3.175 3.347 3.347 0 0 1-1.716 2.8 20.4 20.4 0 0 1-10.1 2.541c-9.34 0-16.393-6.29-16.393-16.138 0-8.903 6.545-16.079 15.885-16.079zm-7.561 13.216h15.123a7.109 7.109 0 0 0-7.561-6.8c-5.02.002-7.177 3.751-7.562 6.8z" class="cls-2" data-name="Path 28" transform="translate(-318.905 -529.296)"/>
            <path id="Path_29" d="M452.727 540.924a15.007 15.007 0 0 1 9.341 2.86 3.615 3.615 0 0 1-2.033 6.608 3.335 3.335 0 0 1-2.1-.7 7.61 7.61 0 0 0-4.829-1.588c-4.893 0-8.324 3.558-8.324 8.9s3.431 8.958 8.324 8.958a7.316 7.316 0 0 0 4.765-1.588 3.465 3.465 0 0 1 2.1-.7 3.615 3.615 0 0 1 2.1 6.608 15.007 15.007 0 0 1-9.341 2.859c-9.467 0-16.266-6.671-16.266-16.138-.003-9.403 6.796-16.079 16.263-16.079z" class="cls-2" data-name="Path 29" transform="translate(-331.115 -529.296)"/>
            <path id="Path_30" d="M506.107 564.41a4.054 4.054 0 0 1-7.117 2.669l-9.023-10.8-3.812 3.559v4.575a4.1 4.1 0 0 1-4.066 4.066 4.041 4.041 0 0 1-4-4.066v-35.142a4.035 4.035 0 1 1 8.069 0v21.6l12.709-12.9a3.693 3.693 0 0 1 2.668-1.08 3.756 3.756 0 0 1 3.75 3.749 3.855 3.855 0 0 1-1.08 2.669l-8.324 8.134 9.4 10.484a3.751 3.751 0 0 1 .826 2.483z" class="cls-2" data-name="Path 30" transform="translate(-342.621 -524.951)"/>
        </g>
        <g id="Group_27" data-name="Group 27" transform="translate(77.596 80.245)">
            <path id="Path_31" d="M229.985 523.116a10.6 10.6 0 0 1-10.106-13.895 1.814 1.814 0 0 1 .093-.373 1.793 1.793 0 0 1 .169-.344 10.609 10.609 0 0 1 19.972 7.1l-.06.192a1.8 1.8 0 0 1-.095.379 1.776 1.776 0 0 1-.169.345 10.518 10.518 0 0 1-4.832 5.357 10.551 10.551 0 0 1-4.972 1.239zm4.121-2.84zM223 511.885a6.99 6.99 0 0 0 10.254 6.8 6.956 6.956 0 0 0 2.432-2.147zm1.245-3.4l12.682 4.647a6.991 6.991 0 0 0-12.682-4.647z" class="cls-3" data-name="Path 31" transform="translate(-169.311 -445.897)"/>
            <path id="Path_32" d="M257.7 494.293a9.717 9.717 0 0 1-1.554-.124 4.558 4.558 0 0 1-.162-.027 1.827 1.827 0 0 1-.717-.153 9.623 9.623 0 0 1-5.444-3.7 9.7 9.7 0 0 1 9.521-15.243 1.793 1.793 0 0 1 .384.041 1.819 1.819 0 0 1 .367.121 9.694 9.694 0 0 1 3.268 17.237 9.613 9.613 0 0 1-5.663 1.848zm2.967-14.984l-2.455 11.343a6.018 6.018 0 0 0 3.027-1.135 6.071 6.071 0 0 0-.572-10.208zm-7.916 8.855a6.069 6.069 0 0 0 1.925 1.724l2.455-11.344a6.077 6.077 0 0 0-4.38 9.621z" class="cls-3" data-name="Path 32" transform="translate(-177.222 -438.433)"/>
            <g id="Group_26" data-name="Group 26" transform="translate(13.178 9.553)">
                <path id="Path_33" d="M179.536 468.891a1.807 1.807 0 0 1-1.373-.632l-9.325-10.881a1.811 1.811 0 0 1-.339-1.76l4.718-13.851a1.808 1.808 0 0 1 1.362-1.192l14.353-2.838a1.807 1.807 0 0 1 1.718.59l9.424 10.883a1.807 1.807 0 0 1 .345 1.767l-4.719 13.85a1.811 1.811 0 0 1-1.364 1.192l-14.455 2.838a1.79 1.79 0 0 1-.345.034zm-7.279-13.084l7.966 9.3 12.394-2.433 4.044-11.876-8.058-9.3-12.3 2.431zm21.735 8.438z" class="cls-3" data-name="Path 33" transform="translate(-168.403 -437.702)"/>
                <path id="Path_34" d="M212.4 479.959a1.809 1.809 0 0 1-1.373-.632l-9.327-10.885a1.809 1.809 0 1 1 2.747-2.354l8.637 10.083 12.39-2.437 4.043-11.872-8.25-9.432-13.106 2.756a1.809 1.809 0 0 1-.745-3.54l14.143-2.974a1.808 1.808 0 0 1 1.734.579l9.634 11.015a1.809 1.809 0 0 1 .351 1.774l-4.717 13.851a1.81 1.81 0 0 1-1.363 1.192l-14.452 2.843a1.848 1.848 0 0 1-.346.033z" class="cls-3" data-name="Path 34" transform="translate(-177.488 -440.724)"/>
                <path id="Path_35" d="M185.787 504.156a1.811 1.811 0 0 1-1.362-.618l-9.634-11.013a1.808 1.808 0 0 1-.337-1.813l5.025-13.718a1.809 1.809 0 1 1 3.4 1.244l-4.657 12.712 8.241 9.421 12.313-2.434 4.475-12.868a1.809 1.809 0 0 1 3.417 1.188l-4.817 13.843a1.811 1.811 0 0 1-1.357 1.181l-14.355 2.837a1.862 1.862 0 0 1-.352.038z" class="cls-3" data-name="Path 35" transform="translate(-170.045 -448.236)"/>
            </g>
            <path id="Path_36" d="M191.017 505.935a1.809 1.809 0 0 1-.354-3.583l9.87-1.979a1.809 1.809 0 1 1 .711 3.548l-9.87 1.979a1.827 1.827 0 0 1-.357.035z" class="cls-3" data-name="Path 36" transform="translate(-160.977 -445.464)"/>
            <path id="Path_37" d="M187.062 464.943a8.8 8.8 0 0 1-.006-17.609h.015a8.8 8.8 0 0 1-.009 17.609zm0-13.991a5.186 5.186 0 1 0 .009 0z" class="cls-3" data-name="Path 37" transform="translate(-157.949 -430.812)"/>
            <path id="Path_38" d="M187.633 484.63a1.809 1.809 0 0 1-.315-3.59l9.655-1.72a1.809 1.809 0 0 1 .635 3.562l-9.655 1.72a1.851 1.851 0 0 1-.32.028z" class="cls-3" data-name="Path 38" transform="translate(-160.042 -439.646)"/>
            <path id="Path_39" d="M230.533 478.171a1.81 1.81 0 0 1-1.7-2.428l3.441-9.462a1.809 1.809 0 1 1 3.4 1.237l-3.441 9.462a1.809 1.809 0 0 1-1.7 1.191z" class="cls-3" data-name="Path 39" transform="translate(-171.9 -435.721)"/>
            <path id="Path_40" d="M214.648 462.107a1.809 1.809 0 0 1-.353-3.583l9.616-1.928a1.809 1.809 0 0 1 .711 3.547l-9.616 1.928a1.773 1.773 0 0 1-.358.036z" class="cls-3" data-name="Path 40" transform="translate(-167.509 -433.363)"/>
            <path id="Path_41" d="M216.725 481.072a1.805 1.805 0 0 1-1.383-.642l-6.493-7.687a1.809 1.809 0 0 1 2.765-2.335l6.493 7.688a1.809 1.809 0 0 1-1.381 2.976z" class="cls-3" data-name="Path 41" transform="translate(-166.288 -437.013)"/>
            <path id="Path_42" d="M228.737 445.581a1.811 1.811 0 0 1-1.7-2.426l2.87-7.915-3.856-8.157a1.809 1.809 0 1 1 3.271-1.546l4.178 8.838a1.813 1.813 0 0 1 .065 1.39l-3.127 8.624a1.809 1.809 0 0 1-1.701 1.192z" class="cls-3" data-name="Path 42" transform="translate(-171.113 -424.5)"/>
            <path id="Path_43" d="M233.46 439.1a1.809 1.809 0 0 1-.58-3.522l9.479-3.213a1.809 1.809 0 1 1 1.162 3.426l-9.479 3.213a1.793 1.793 0 0 1-.582.096z" class="cls-3" data-name="Path 43" transform="translate(-172.709 -426.649)"/>
            <path id="Path_44" d="M157.528 510.418a1.809 1.809 0 0 1-1.616-2.619l4.378-8.739a1.813 1.813 0 0 1 1.053-.908l8.715-2.86a1.809 1.809 0 0 1 1.128 3.438l-8 2.625-4.04 8.065a1.809 1.809 0 0 1-1.618.998z" class="cls-3" data-name="Path 44" transform="translate(-151.719 -444.044)"/>
            <path id="Path_45" d="M160.377 500.678a1.8 1.8 0 0 1-.988-.3l-8.378-5.48a1.809 1.809 0 1 1 1.98-3.028l8.378 5.481a1.809 1.809 0 0 1-.992 3.323z" class="cls-3" data-name="Path 45" transform="translate(-150.191 -443.043)"/>
        </g>
        <g id="Group_352" data-name="Group 352" transform="translate(9 119.181)">
            <g id="Group_168" data-name="Group 168" transform="translate(23 13)">
                <g id="Group_167" data-name="Group 167" transform="translate(9.541 2.133)">
                    <path id="Path_117" d="M56.619 14.912h-5.045L47.23 26.229h1.937l1.763-4.592h3.27a5.083 5.083 0 0 0 4.67-3.368 2.614 2.614 0 0 0-.073-2.44 2.5 2.5 0 0 0-2.178-.917zm.328 3.217a2.64 2.64 0 0 1-2.76 1.814h-2.608l1.282-3.343H55.7c.671 0 1.106.138 1.292.409a1.229 1.229 0 0 1-.045 1.12z" class="cls-2" data-name="Path 117" transform="translate(-47.23 -14.624)"/>
                    <path id="Path_118" d="M116.5 14.912h-9.3l-.668 1.738h3.683l-3.677 9.579h1.937l3.677-9.578h3.683z" class="cls-2" data-name="Path 118" transform="translate(-93.616 -14.624)"/>
                    <path id="Path_119" d="M152.609 14.734a3.526 3.526 0 0 0-2.929-1.145c-3.175 0-6.1 2.28-7.456 5.808-.8 2.093-.834 3.7-.092 4.783a3.4 3.4 0 0 0 2.968 1.3c3.95 0 6.048-3.371 6.6-4.4l.17-.32h-1.913l-.063.108c-1.51 2.6-3.346 2.877-4.065 2.877a2.17 2.17 0 0 1-1.906-.733c-.469-.683-.388-1.861.242-3.5.975-2.539 2.944-4.18 5.016-4.18a2.246 2.246 0 0 1 1.7.581 1.694 1.694 0 0 1 .261 1.423l-.043.254h1.849l.043-.161a3.043 3.043 0 0 0-.382-2.695z" class="cls-2" data-name="Path 119" transform="translate(-121.049 -13.589)"/>
                </g>
                <path id="Path_120" d="M8.471 32.338l.138-7.825-5.2-2.156z" class="cls-4" data-name="Path 120" transform="translate(-3.413 -18.315)"/>
                <path id="Path_121" d="M17.671 32.3l.07-4-2.654-1.1z" class="cls-5" data-name="Path 121" transform="translate(-12.545 -22.103)"/>
                <path id="Path_122" d="M4.507 7.261L9.7 9.417l5.443-5.624z" class="cls-3" data-name="Path 122" transform="translate(-4.269 -3.793)"/>
                <path id="Path_123" d="M16.181 18.2l2.653 1.1 2.78-2.872z" class="cls-4" data-name="Path 123" transform="translate(-13.401 -13.678)"/>
            </g>
        </g>
    </g>
</svg>
