<svg xmlns="http://www.w3.org/2000/svg" width="232.872" height="87.236" viewBox="0 0 232.872 87.236">
    <defs>
        <style>
            .cls-1{fill:#1c6cc1}.cls-2{fill:#003c71}.cls-3{fill:#0076ce}.cls-4{fill:#69b3e7}
        </style>
    </defs>
    <g id="teamcheck-logo" transform="translate(-32 -80.245)">
        <g id="Group_24" data-name="Group 24" transform="translate(33.498 135.16)">
            <path id="Path_22" d="M99.555 554.518v-22.752h-6.616a2.975 2.975 0 1 1 0-5.95h20.039a2.975 2.975 0 1 1 0 5.95h-6.616v22.752a3.4 3.4 0 0 1-6.806 0z" class="cls-1" data-name="Path 22" transform="translate(-89.94 -525.816)"/>
            <path id="Path_23" d="M140.654 540.92a11.122 11.122 0 0 1 11.518 11.138c0 2-1.285 2.855-3.617 2.855h-13.47c.381 2.9 2.713 5.331 6.616 5.331a9.841 9.841 0 0 0 4.665-1.285 2.262 2.262 0 0 1 1.143-.286 2.418 2.418 0 0 1 2.38 2.38 2.508 2.508 0 0 1-1.285 2.095 15.28 15.28 0 0 1-7.568 1.9c-7 0-12.28-4.712-12.28-12.089a11.7 11.7 0 0 1 11.898-12.039zm-5.664 9.9h11.328a5.324 5.324 0 0 0-5.664-5.093 5.525 5.525 0 0 0-5.665 5.094z" class="cls-1" data-name="Path 23" transform="translate(-107.716 -532.733)"/>
            <path id="Path_24" d="M194.248 549.63v12.042a3.056 3.056 0 0 1-6.092.429 9.5 9.5 0 0 1-7.235 2.951c-3.665 0-8-2.475-8-7.615 0-5.378 4.332-7.33 8-7.33 3.046 0 5.76.952 7.283 2.809v-3.189c0-2.332-2-3.855-5.046-3.855a9.217 9.217 0 0 0-5.093 1.523 2.476 2.476 0 0 1-1.19.333 2.327 2.327 0 0 1-2.285-2.332 2.387 2.387 0 0 1 1.095-2 15.3 15.3 0 0 1 8.52-2.475c5.235-.001 10.043 2.093 10.043 8.709zm-6.048 9.33v-2.86a6.046 6.046 0 0 0-4.855-2c-2.38 0-4.331 1.285-4.331 3.474 0 2.142 1.951 3.38 4.331 3.38a6.046 6.046 0 0 0 4.855-1.994z" class="cls-1" data-name="Path 24" transform="translate(-127.945 -532.733)"/>
            <path id="Path_25" d="M253.542 547.869v13.9a3.046 3.046 0 0 1-6.092 0v-11.8c0-2.142-.952-3.665-3.427-3.665a6.1 6.1 0 0 0-4.76 2.665v12.8a3.046 3.046 0 0 1-6.092 0v-11.8c0-2.142-.952-3.665-3.427-3.665a6.17 6.17 0 0 0-4.76 2.713v12.756a3.023 3.023 0 1 1-6.045 0V544.2a3.038 3.038 0 0 1 3-3.094 3.088 3.088 0 0 1 3.094 3.094v.239a10.1 10.1 0 0 1 7.473-3.523c3.379 0 5.521 1.571 6.378 4.189a9.755 9.755 0 0 1 7.9-4.189c4.235.004 6.758 2.241 6.758 6.953z" class="cls-1" data-name="Path 25" transform="translate(-149.018 -532.733)"/>
        </g>
        <g id="Group_25" data-name="Group 25" transform="translate(142.406 134.639)">
            <path id="Path_26" d="M290.869 541.275c0-9.758 7.377-16.421 16.659-16.421a14.548 14.548 0 0 1 11.328 4.712 3.067 3.067 0 0 1 .809 2.142 3.189 3.189 0 0 1-3.189 3.189 3.146 3.146 0 0 1-2.427-1.095 8.687 8.687 0 0 0-6.521-2.951c-5.522 0-9.71 4.427-9.71 10.424s4.188 10.424 9.71 10.424a8.58 8.58 0 0 0 6.568-3 3.264 3.264 0 0 1 2.38-1.048 3.19 3.19 0 0 1 3.189 3.189 2.952 2.952 0 0 1-.809 2.094 14.572 14.572 0 0 1-11.328 4.759c-9.282.007-16.659-6.66-16.659-16.418z" class="cls-2" data-name="Path 26" transform="translate(-290.869 -524.854)"/>
            <path id="Path_27" d="M364.038 554.573v-11.281c0-3.189-1.666-4.188-4.284-4.188a6.7 6.7 0 0 0-5.235 2.713v12.756a3.027 3.027 0 0 1-3 3.046 3.067 3.067 0 0 1-3.046-3.046v-26.322a3.067 3.067 0 0 1 3.046-3.046 3.027 3.027 0 0 1 3 3.046v9.049a10.636 10.636 0 0 1 8.091-3.57c5.045 0 7.473 2.761 7.473 7.235v13.613a3.023 3.023 0 1 1-6.045 0z" class="cls-2" data-name="Path 27" transform="translate(-317.251 -525.015)"/>
            <path id="Path_28" d="M404.191 540.924a11.122 11.122 0 0 1 11.519 11.138c0 2-1.285 2.855-3.617 2.855h-13.47c.38 2.9 2.713 5.331 6.616 5.331a9.843 9.843 0 0 0 4.665-1.285 2.257 2.257 0 0 1 1.143-.286 2.418 2.418 0 0 1 2.379 2.379 2.507 2.507 0 0 1-1.285 2.095 15.279 15.279 0 0 1-7.568 1.9c-7 0-12.28-4.712-12.28-12.089a11.7 11.7 0 0 1 11.898-12.038zm-5.664 9.9h11.328a5.325 5.325 0 0 0-5.664-5.092 5.525 5.525 0 0 0-5.665 5.092z" class="cls-2" data-name="Path 28" transform="translate(-337.318 -532.214)"/>
            <path id="Path_29" d="M448.646 540.924a11.242 11.242 0 0 1 7 2.142 2.708 2.708 0 0 1-1.523 4.95 2.5 2.5 0 0 1-1.571-.524 5.7 5.7 0 0 0-3.617-1.19c-3.665 0-6.235 2.665-6.235 6.664s2.57 6.711 6.235 6.711a5.481 5.481 0 0 0 3.57-1.19 2.6 2.6 0 0 1 1.571-.524 2.708 2.708 0 0 1 1.571 4.95 11.241 11.241 0 0 1-7 2.142c-7.092 0-12.185-5-12.185-12.089-.001-7.044 5.092-12.042 12.184-12.042z" class="cls-2" data-name="Path 29" transform="translate(-357.547 -532.214)"/>
            <path id="Path_30" d="M499.076 554.573a3.037 3.037 0 0 1-5.331 2l-6.759-8.092-2.856 2.666v3.427a3.068 3.068 0 0 1-3.046 3.046 3.027 3.027 0 0 1-3-3.046v-26.323a3.022 3.022 0 1 1 6.045 0v16.184l9.52-9.663a2.766 2.766 0 0 1 2-.809 2.813 2.813 0 0 1 2.809 2.808 2.888 2.888 0 0 1-.809 2l-6.235 6.093 7.045 7.853a2.81 2.81 0 0 1 .617 1.856z" class="cls-2" data-name="Path 30" transform="translate(-376.61 -525.015)"/>
        </g>
        <g id="Group_27" data-name="Group 27" transform="translate(66.156 80.245)">
            <path id="Path_31" d="M227.318 517.794a7.944 7.944 0 0 1-7.57-10.408 1.358 1.358 0 0 1 .07-.279 1.342 1.342 0 0 1 .127-.258 7.947 7.947 0 0 1 14.961 5.316c-.015.048-.03.1-.045.144a1.345 1.345 0 0 1-.071.284 1.331 1.331 0 0 1-.127.259 7.879 7.879 0 0 1-3.62 4.013 7.9 7.9 0 0 1-3.725.929zm3.087-2.127zm-8.318-6.286a5.236 5.236 0 0 0 7.681 5.09 5.21 5.21 0 0 0 1.822-1.608zm.933-2.544l9.5 3.481a5.237 5.237 0 0 0-9.5-3.481z" class="cls-1" data-name="Path 31" transform="translate(-181.868 -459.949)"/>
            <path id="Path_32" d="M255.264 489.427a7.278 7.278 0 0 1-1.164-.093l-.121-.02a1.369 1.369 0 0 1-.537-.115 7.208 7.208 0 0 1-4.078-2.77 7.264 7.264 0 0 1 7.136-11.419 1.343 1.343 0 0 1 .288.031 1.361 1.361 0 0 1 .275.091 7.262 7.262 0 0 1 2.448 12.912 7.2 7.2 0 0 1-4.247 1.383zm2.222-11.225l-1.839 8.5a4.508 4.508 0 0 0 2.268-.85 4.548 4.548 0 0 0-.429-7.647zm-5.93 6.633a4.546 4.546 0 0 0 1.444 1.292l1.839-8.5a4.553 4.553 0 0 0-3.281 7.207z" class="cls-1" data-name="Path 32" transform="translate(-194.975 -447.583)"/>
            <g id="Group_26" data-name="Group 26" transform="translate(9.871 7.156)">
                <path id="Path_33" d="M176.742 461.065a1.354 1.354 0 0 1-1.029-.474l-6.985-8.151a1.357 1.357 0 0 1-.254-1.319l3.535-10.375a1.354 1.354 0 0 1 1.02-.893l10.752-2.126a1.354 1.354 0 0 1 1.287.442l7.059 8.153a1.353 1.353 0 0 1 .259 1.324l-3.532 10.374a1.356 1.356 0 0 1-1.022.893L177 461.04a1.341 1.341 0 0 1-.258.025zm-5.453-9.8l5.967 6.964 9.284-1.822 3.029-8.9-6.036-6.97-9.212 1.821zm16.281 6.321z" class="cls-1" data-name="Path 33" transform="translate(-168.403 -437.702)"/>
                <path id="Path_34" d="M209.607 472.1a1.355 1.355 0 0 1-1.029-.474l-6.985-8.154a1.355 1.355 0 0 1 2.058-1.763l6.47 7.553 9.281-1.826 3.029-8.893-6.18-7.065-9.818 2.065a1.355 1.355 0 0 1-.558-2.652l10.594-2.228a1.355 1.355 0 0 1 1.3.434l7.217 8.251a1.355 1.355 0 0 1 .263 1.329l-3.533 10.375a1.356 1.356 0 0 1-1.021.893l-10.826 2.13a1.384 1.384 0 0 1-.262.025z" class="cls-1" data-name="Path 34" transform="translate(-183.454 -442.709)"/>
                <path id="Path_35" d="M182.916 497.043a1.357 1.357 0 0 1-1.02-.463l-7.216-8.25a1.354 1.354 0 0 1-.253-1.358l3.764-10.276a1.355 1.355 0 1 1 2.545.932l-3.488 9.522 6.173 7.057 9.224-1.823 3.355-9.64a1.355 1.355 0 0 1 2.56.89l-3.608 10.373a1.356 1.356 0 0 1-1.017.885l-10.753 2.125a1.4 1.4 0 0 1-.266.026z" class="cls-1" data-name="Path 35" transform="translate(-171.124 -455.153)"/>
            </g>
            <path id="Path_36" d="M190.564 504.531a1.355 1.355 0 0 1-.265-2.684l7.394-1.482a1.355 1.355 0 0 1 .533 2.658l-7.394 1.482a1.367 1.367 0 0 1-.268.026z" class="cls-1" data-name="Path 36" transform="translate(-168.061 -459.232)"/>
            <path id="Path_37" d="M184.853 460.524a6.6 6.6 0 0 1 0-13.191h.011a6.6 6.6 0 0 1-.007 13.191zm0-10.481a3.885 3.885 0 1 0 .007 0z" class="cls-1" data-name="Path 37" transform="translate(-163.045 -434.957)"/>
            <path id="Path_38" d="M187.18 483.291a1.355 1.355 0 0 1-.236-2.69l7.232-1.288a1.355 1.355 0 0 1 .475 2.668l-7.232 1.288a1.383 1.383 0 0 1-.239.022z" class="cls-1" data-name="Path 38" transform="translate(-166.511 -449.594)"/>
            <path id="Path_39" d="M230.078 474.889a1.356 1.356 0 0 1-1.274-1.819l2.578-7.088a1.355 1.355 0 1 1 2.547.926L231.352 474a1.355 1.355 0 0 1-1.274.889z" class="cls-1" data-name="Path 39" transform="translate(-186.157 -443.09)"/>
            <path id="Path_40" d="M214.194 460.715a1.355 1.355 0 0 1-.264-2.684l7.2-1.444a1.355 1.355 0 1 1 .532 2.657l-7.2 1.444a1.328 1.328 0 0 1-.268.027z" class="cls-1" data-name="Path 40" transform="translate(-178.883 -439.183)"/>
            <path id="Path_41" d="M214.642 478.235a1.352 1.352 0 0 1-1.036-.481L208.741 472a1.355 1.355 0 0 1 2.071-1.749l4.864 5.759a1.355 1.355 0 0 1-1.034 2.229z" class="cls-1" data-name="Path 41" transform="translate(-176.859 -445.231)"/>
            <path id="Path_42" d="M228.019 440.291a1.357 1.357 0 0 1-1.274-1.817l2.15-5.929-2.888-6.11a1.355 1.355 0 0 1 2.45-1.158l3.13 6.62a1.358 1.358 0 0 1 .049 1.041l-2.343 6.46a1.355 1.355 0 0 1-1.274.893z" class="cls-1" data-name="Path 42" transform="translate(-184.853 -424.5)"/>
            <path id="Path_43" d="M233.006 437.391a1.355 1.355 0 0 1-.435-2.639l7.1-2.407a1.355 1.355 0 1 1 .87 2.566l-7.1 2.407a1.343 1.343 0 0 1-.435.073z" class="cls-1" data-name="Path 43" transform="translate(-187.498 -428.06)"/>
            <path id="Path_44" d="M157.075 506.6a1.355 1.355 0 0 1-1.211-1.962l3.279-6.547a1.358 1.358 0 0 1 .789-.68l6.529-2.143a1.355 1.355 0 0 1 .845 2.575l-5.992 1.966-3.027 6.041a1.355 1.355 0 0 1-1.212.75z" class="cls-1" data-name="Path 44" transform="translate(-152.723 -456.88)"/>
            <path id="Path_45" d="M157.821 498.395a1.349 1.349 0 0 1-.74-.221l-6.276-4.105a1.355 1.355 0 0 1 1.484-2.268l6.276 4.106a1.355 1.355 0 0 1-.743 2.489z" class="cls-1" data-name="Path 45" transform="translate(-150.191 -455.221)"/>
        </g>
        <g id="Group_352" data-name="Group 352" transform="translate(32 119.15)">
            <g id="Group_168" data-name="Group 168">
                <g id="Group_167" data-name="Group 167" transform="translate(7.147 1.598)">
                    <path id="Path_117" d="M54.263 14.912h-3.779L47.23 23.39h1.451L50 19.95h2.453a3.807 3.807 0 0 0 3.5-2.523A1.958 1.958 0 0 0 55.9 15.6a1.873 1.873 0 0 0-1.637-.688zm.246 2.41a1.977 1.977 0 0 1-2.067 1.359h-1.954l.96-2.5h2.125c.5 0 .828.1.968.306a.921.921 0 0 1-.032.835z" class="cls-2" data-name="Path 117" transform="translate(-47.23 -14.696)"/>
                    <path id="Path_118" d="M114 14.912h-6.968l-.5 1.3h2.759l-2.755 7.176h1.451l2.754-7.175h2.759z" class="cls-2" data-name="Path 118" transform="translate(-96.856 -14.696)"/>
                    <path id="Path_119" d="M149.846 14.447a2.641 2.641 0 0 0-2.194-.858 6.248 6.248 0 0 0-5.585 4.351c-.6 1.568-.625 2.773-.069 3.583a2.546 2.546 0 0 0 2.223.976c2.959 0 4.531-2.525 4.942-3.3l.127-.24h-1.433l-.047.081c-1.131 1.945-2.506 2.155-3.045 2.155a1.626 1.626 0 0 1-1.428-.549c-.352-.511-.291-1.394.181-2.624.73-1.9 2.205-3.131 3.758-3.131a1.682 1.682 0 0 1 1.277.435 1.269 1.269 0 0 1 .2 1.066l-.032.19h1.379l.032-.121a2.28 2.28 0 0 0-.286-2.014z" class="cls-2" data-name="Path 119" transform="translate(-126.205 -13.589)"/>
                </g>
                <path id="Path_120" d="M7.2 29.834l.1-5.862-3.887-1.615z" class="cls-3" data-name="Path 120" transform="translate(-3.413 -19.329)"/>
                <path id="Path_121" d="M17.023 31.019l.052-2.994-1.988-.825z" class="cls-2" data-name="Path 121" transform="translate(-13.183 -23.382)"/>
                <path id="Path_122" d="M4.507 6.391L8.4 8.006l4.077-4.213z" class="cls-4" data-name="Path 122" transform="translate(-4.329 -3.793)"/>
                <path id="Path_123" d="M16.181 17.757l1.988.825 2.083-2.152z" class="cls-3" data-name="Path 123" transform="translate(-14.098 -14.369)"/>
            </g>
        </g>
    </g>
</svg>
